<svg width="35" height="35" viewBox="0 0 35 35" fill="none" xmlns="http://www.w3.org/2000/svg">
<path d="M0 27.4728V30.325C0 32.683 5.74453 34.6 12.825 34.6C19.9055 34.6 25.65 32.683 25.65 30.325V27.4728C22.8913 29.4166 17.8481 30.325 12.825 30.325C7.80188 30.325 2.75871 29.4166 0 27.4728ZM21.375 8.95002C28.4555 8.95002 34.2 7.03295 34.2 4.67502C34.2 2.31709 28.4555 0.400024 21.375 0.400024C14.2945 0.400024 8.55 2.31709 8.55 4.67502C8.55 7.03295 14.2945 8.95002 21.375 8.95002ZM0 20.4658V23.9125C0 26.2705 5.74453 28.1875 12.825 28.1875C19.9055 28.1875 25.65 26.2705 25.65 23.9125V20.4658C22.8913 22.7369 17.8414 23.9125 12.825 23.9125C7.80855 23.9125 2.75871 22.7369 0 20.4658ZM27.7875 21.2006C31.615 20.4591 34.2 19.0831 34.2 17.5V14.6478C32.6503 15.7433 30.3725 16.4914 27.7875 16.9523V21.2006ZM12.825 11.0875C5.74453 11.0875 0 13.4789 0 16.4313C0 19.3837 5.74453 21.775 12.825 21.775C19.9055 21.775 25.65 19.3837 25.65 16.4313C25.65 13.4789 19.9055 11.0875 12.825 11.0875ZM27.4736 14.8482C31.4814 14.1268 34.2 12.7107 34.2 11.0875V8.2353C31.8287 9.9119 27.7541 10.8137 23.4657 11.0274C25.4362 11.9826 26.8857 13.2651 27.4736 14.8482Z" fill="#FFB822"/>
</svg>
