<svg width="216" height="68" viewBox="0 0 216 68" fill="none" xmlns="http://www.w3.org/2000/svg">
<path d="M48.2215 21.4761C47.7005 13.4691 40.3019 3.46049 31.0276 1.24805L29.8813 6.51576C36.8631 8.20143 42.1776 14.312 42.6986 21.8975C42.8028 23.2671 42.6986 24.6367 42.4902 26.0063H48.4299C48.6383 24.426 48.3257 22.951 48.2215 21.4761Z" fill="#1A66B0"/>
<path d="M36.447 23.4771C36.447 24.4253 36.6554 25.0574 36.447 25.9002H40.1984C40.3026 24.952 40.3026 24.3199 40.3026 23.2664C39.8858 16.2076 35.7176 11.3613 29.361 9.35962L28.6316 13.047C33.0082 14.9434 36.3428 18.8415 36.447 23.4771Z" fill="#1A66B0"/>
<path d="M30.2985 26.0061C30.5069 25.9007 34.1541 26.0061 34.2583 26.0061C34.8836 20.7384 31.4448 17.1563 28.1102 16.1028C28.1102 16.1028 27.485 18.9473 27.1724 20.4223C29.2565 20.9491 31.028 23.4776 30.2985 26.0061Z" fill="#1A66B0"/>
<path d="M24.5677 27.9051C26.4093 27.9051 27.9023 26.3957 27.9023 24.5338C27.9023 22.6719 26.4093 21.1625 24.5677 21.1625C22.7261 21.1625 21.2332 22.6719 21.2332 24.5338C21.2332 26.3957 22.7261 27.9051 24.5677 27.9051Z" fill="#1A66B0"/>
<path d="M24.5671 40.9664C15.6054 40.9664 8.20685 33.5916 8.20685 24.4258C8.20685 15.26 15.6054 7.99055 24.5671 7.99055C24.8797 7.99055 25.2965 7.99055 25.6092 7.99055L27.1722 0.405037C26.3386 0.299683 25.505 0.299683 24.5671 0.299683C11.333 0.299683 0.599854 11.1512 0.599854 24.5312C0.599854 41.0718 22.0662 65.4086 22.8998 66.4621C23.7335 67.4103 25.2965 67.4103 26.1302 66.4621C26.9638 65.514 44.3661 45.8127 47.9091 29.7989L39.9895 29.9042C37.8012 36.3308 31.6531 40.9664 24.5671 40.9664Z" fill="#1A66B0"/>
<path d="M68.3244 23.4753V40.5506H76.3716V43.8374H64.5V23.4753H68.3244Z" fill="#1A66B0"/>
<path d="M81.7887 23.4753V26.4415H78.0439V23.4753H81.7887ZM81.7887 28.9266V43.9175H78.0439V28.9266H81.7887Z" fill="#1A66B0"/>
<path d="M83.9402 43.9182V28.9272H86.8085L87.2865 31.0917C88.7207 29.6487 90.3142 28.9272 92.1467 28.9272C95.6524 28.9272 97.4051 30.7711 97.4051 34.4587V43.9182H93.6605V34.4587C93.6605 32.7752 92.8638 31.9735 91.1906 31.9735C89.9955 31.9735 88.8004 32.4545 87.6052 33.4165V43.838L83.9402 43.9182Z" fill="#1A66B0"/>
<path d="M99.5562 43.9175V23.4753H103.301V30.0489C104.815 29.2473 106.488 28.8464 108.161 28.8464C111.985 28.8464 113.818 30.2894 113.818 33.1754C113.818 35.2597 112.463 36.863 109.834 38.0655L114.455 43.8374H109.834L105.93 38.4663V36.7026C108.639 36.1415 109.994 35.1795 109.994 33.8167C109.994 32.4539 109.117 31.8125 107.285 31.8125C106.01 31.8125 104.655 32.2134 103.142 33.015V43.7572H99.5562V43.9175Z" fill="#1A66B0"/>
<path d="M121.466 28.9272C126.007 28.9272 128.238 31.252 128.238 35.9016C128.238 36.543 128.158 37.1041 128.079 37.7454H118.199C118.199 39.8297 119.713 40.8719 122.82 40.8719C124.334 40.8719 125.848 40.7116 127.361 40.4711V43.4372C126.087 43.7578 124.413 43.838 122.581 43.838C117.163 43.838 114.454 41.2727 114.454 36.2223C114.454 31.3322 116.765 28.9272 121.466 28.9272ZM118.199 35.1H124.573V35.0198C124.573 32.9355 123.537 31.8934 121.466 31.8934C119.474 31.8934 118.358 32.9355 118.199 35.1Z" fill="#1A66B0"/>
<path d="M142.74 42.9555C140.429 43.5167 138.278 43.8374 136.047 43.8374C131.267 43.8374 128.876 41.2721 128.876 36.0613C128.876 31.2514 131.267 28.8464 135.968 28.8464C137.003 28.8464 137.959 29.0869 139.075 29.5679V23.4753H142.82L142.74 42.9555ZM138.995 32.8547C138.198 32.3737 137.242 32.053 136.047 32.053C133.737 32.053 132.542 33.3357 132.542 35.9812C132.542 39.1076 133.737 40.6307 136.207 40.6307C137.163 40.6307 138.119 40.4704 138.995 40.2299V32.8547Z" fill="#1A66B0"/>
<path d="M145.209 35.901V23.4753H148.953V35.8208C148.953 39.1076 150.627 40.7109 153.893 40.7109C157.16 40.7109 158.833 39.1076 158.833 35.8208V23.4753H162.578V35.8208C162.578 41.2721 159.71 43.9977 153.893 43.9977C148.077 43.9977 145.209 41.3522 145.209 35.901Z" fill="#1A66B0"/>
<path d="M165.046 43.9182V28.9272H167.914L168.392 31.0917C169.827 29.6487 171.42 28.9272 173.253 28.9272C176.758 28.9272 178.511 30.7711 178.511 34.4587V43.9182H174.846V34.4587C174.846 32.7752 174.049 31.9735 172.376 31.9735C171.181 31.9735 169.986 32.4545 168.791 33.4165V43.838L165.046 43.9182Z" fill="#1A66B0"/>
<path d="M184.408 23.4753V26.4415H180.663V23.4753H184.408ZM184.408 28.9266V43.9175H180.663V28.9266H184.408Z" fill="#1A66B0"/>
<path d="M185.761 36.3814C185.761 31.331 188.231 28.8458 193.091 28.8458C197.951 28.8458 200.421 31.331 200.421 36.3814C200.421 41.3516 197.951 43.9169 193.091 43.9169C188.31 43.9169 185.84 41.4318 185.761 36.3814ZM193.171 41.031C195.561 41.031 196.756 39.5078 196.756 36.3814C196.756 33.3351 195.561 31.8119 193.171 31.8119C190.78 31.8119 189.585 33.3351 189.585 36.3814C189.585 39.5078 190.78 41.031 193.171 41.031Z" fill="#1A66B0"/>
<path d="M201.935 43.9182V28.9272H204.803L205.281 31.0917C206.716 29.6487 208.309 28.9272 210.142 28.9272C213.647 28.9272 215.4 30.7711 215.4 34.4587V43.9182H211.655V34.4587C211.655 32.7752 210.859 31.9735 209.185 31.9735C207.99 31.9735 206.795 32.4545 205.6 33.4165V43.838L201.935 43.9182Z" fill="#1A66B0"/>
</svg>
